<?xml version="1.0" encoding="utf-8"?>
<!DOCTYPE svg PUBLIC "-//W3C//DTD SVG 1.1//EN" "http://www.w3.org/Graphics/SVG/1.1/DTD/svg11.dtd">
<svg version="1.1" xmlns="http://www.w3.org/2000/svg" xmlns:xlink="http://www.w3.org/1999/xlink" x="0px" y="0px"
	 viewBox="2192.6 2159.6 90 90" enable-background="new 2192.6 2159.6 90 90" xml:space="preserve">
<path d="M2278,2159.6h-80.9c-2.5,0-4.5,2-4.5,4.5v81c0,2.5,2,4.5,4.5,4.5h81c2.5,0,4.5-2,4.5-4.5v-81
	C2282.5,2161.6,2280.5,2159.6,2278,2159.6z M2260,2192.6c0,0.5,0,1,0,1.5c0,15.3-11.6,32.9-32.9,32.9c-6.5,0-12.6-1.9-17.7-5.2
	c0.9,0.1,1.8,0.2,2.7,0.2c5.4,0,10.4-1.9,14.4-5c-5.1-0.1-9.3-3.4-10.8-8c0.7,0.1,1.4,0.2,2.2,0.2c1,0,2.1-0.1,3-0.4
	c-5.3-1-9.3-5.8-9.3-11.3c0-0.1,0-0.1,0-0.1c1.6,0.9,3.4,1.4,5.3,1.4c-3.1-2.1-5.2-5.6-5.2-9.6c0-2.1,0.6-4.1,1.6-5.8
	c5.7,7,14.2,11.6,23.9,12.1c-0.2-0.8-0.3-1.7-0.3-2.6c0-6.4,5.2-11.6,11.6-11.6c3.3,0,6.3,1.4,8.5,3.7c2.6-0.5,5.1-1.5,7.4-2.8
	c-0.8,2.7-2.7,5-5.1,6.4c2.3-0.3,4.6-0.9,6.6-1.8C2264.2,2188.9,2262.2,2190.9,2260,2192.6z"/>
</svg>
