<?xml version="1.0" encoding="utf-8"?>
<!DOCTYPE svg PUBLIC "-//W3C//DTD SVG 1.1//EN" "http://www.w3.org/Graphics/SVG/1.1/DTD/svg11.dtd">
<svg version="1.1" xmlns="http://www.w3.org/2000/svg" xmlns:xlink="http://www.w3.org/1999/xlink" x="0px" y="0px"
	 viewBox="1680.8 2159.6 90 90" enable-background="new 1680.8 2159.6 90 90" xml:space="preserve">
<path d="M1766.3,2159.6h-81c-2.5,0-4.5,2-4.5,4.5v81c0,2.5,2,4.5,4.5,4.5h81c2.5,0,4.5-2,4.5-4.5v-81
	C1770.7,2161.6,1768.7,2159.6,1766.3,2159.6z M1763.2,2207c0,6.1-0.8,12.1-0.8,12.1s-0.7,5.2-3,7.4c-2.8,3-6,3-7.5,3.2
	c-10.5,0.8-26.2,0.8-26.2,0.8s-19.5-0.2-25.5-0.8c-1.7-0.3-5.4-0.2-8.2-3.2c-2.3-2.3-3-7.4-3-7.4s-0.8-6.1-0.8-12.1v-5.7
	c0-6.1,0.8-12.1,0.8-12.1s0.7-5.2,3-7.4c2.8-3,6-3,7.5-3.2c10.5-0.8,26.2-0.8,26.2-0.8h0c0,0,15.7,0,26.2,0.8
	c1.5,0.2,4.7,0.2,7.5,3.2c2.3,2.3,3,7.4,3,7.4s0.8,6.1,0.8,12.1V2207L1763.2,2207z"/>
<polygon points="1718,2213.9 1738.3,2203.4 1718,2192.9 "/>
</svg>
