<?xml version="1.0" encoding="utf-8"?>
<!DOCTYPE svg PUBLIC "-//W3C//DTD SVG 1.1//EN" "http://www.w3.org/Graphics/SVG/1.1/DTD/svg11.dtd">
<svg version="1.1" xmlns="http://www.w3.org/2000/svg" xmlns:xlink="http://www.w3.org/1999/xlink" x="0px" y="0px"
	 viewBox="1784.4 2159.6 90 90" enable-background="new 1784.4 2159.6 90 90" xml:space="preserve">
<path d="M1867.7,2159.6h-76.7c-3.7,0-6.6,2.9-6.6,6.5v77c0,3.6,3,6.5,6.6,6.5h76.7c3.7,0,6.7-2.9,6.7-6.5v-77
	C1874.4,2162.5,1871.4,2159.6,1867.7,2159.6z M1811.1,2236.3h-13.3v-42.9h13.3V2236.3z M1804.4,2187.5c-4.3,0-7.7-3.5-7.7-7.7
	c0-4.3,3.5-7.7,7.7-7.7c4.3,0,7.7,3.5,7.7,7.7C1812.2,2184,1808.7,2187.5,1804.4,2187.5z M1861.1,2236.3h-13.3v-20.9
	c0-5-0.1-11.4-6.9-11.4c-7,0-8,5.4-8,11v21.2h-13.3v-42.9h12.8v5.8h0.2c1.8-3.4,6.1-6.9,12.6-6.9c13.5,0,16,8.9,16,20.5V2236.3
	L1861.1,2236.3z"/>
</svg>
