<?xml version="1.0" encoding="utf-8"?>
<!DOCTYPE svg PUBLIC "-//W3C//DTD SVG 1.1//EN" "http://www.w3.org/Graphics/SVG/1.1/DTD/svg11.dtd">
<svg version="1.1" xmlns="http://www.w3.org/2000/svg" xmlns:xlink="http://www.w3.org/1999/xlink" x="0px" y="0px"
	 viewBox="2292.1 2159.6 90 90" enable-background="new 2292.1 2159.6 90 90" xml:space="preserve">
<path id="White_9_" d="M2377.1,2159.6h-80c-2.7,0-5,2.2-5,5v80c0,2.7,2.2,5,5,5h43.1v-34.8h-11.7v-13.6h11.7v-10
	c0-11.6,7.1-17.9,17.5-17.9c5,0,9.2,0.4,10.5,0.5v12.2h-7.2c-5.7,0-6.7,2.7-6.7,6.6v8.7h13.5l-1.7,13.6h-11.7v34.8h22.9
	c2.7,0,5-2.2,5-5v-80C2382.1,2161.8,2379.9,2159.6,2377.1,2159.6z"/>
</svg>
